<svg xmlns="http://www.w3.org/2000/svg" width="70" height="19.903"><defs><clipPath id="a"><path data-name="Rectangle 359" fill="none" d="M0 0h70v19.903H0z"/></clipPath></defs><path data-name="Path 680" d="M0 4.013v11.735h7.312V13.52H2.646V4.013Z" fill="#fff"/><g data-name="Group 59"><g data-name="Group 58" clip-path="url(#a)" fill="#fff"><path data-name="Path 681" d="M10.985 4.871a1.319 1.319 0 0 1-1.423 1.318 1.326 1.326 0 1 1 1.423-1.318M8.252 7.234h2.647v8.514H8.252Z"/><path data-name="Path 682" d="M12.482 9.95c0-1.062-.035-1.95-.07-2.716h2.3l.122 1.184h.052a3.057 3.057 0 0 1 2.63-1.375c1.741 0 3.047 1.167 3.047 3.674v5.032h-2.647V11.03c0-1.1-.383-1.845-1.34-1.845a1.454 1.454 0 0 0-1.358.992 1.908 1.908 0 0 0-.087.662v4.91h-2.647Z"/><path data-name="Path 683" d="M24.791 10.821h.035a11.467 11.467 0 0 1 .609-1.027l1.724-2.559h3.186l-3.047 3.45 3.482 5.067h-3.256l-2.072-3.5-.661.836v2.664h-2.647V3.385h2.647Z"/><path data-name="Path 684" d="M32.835 12.336c.07 1.1 1.166 1.619 2.4 1.619a7.017 7.017 0 0 0 2.351-.366l.348 1.793a8.049 8.049 0 0 1-3.082.54c-2.89 0-4.544-1.671-4.544-4.335a4.265 4.265 0 0 1 4.3-4.544c2.751 0 3.8 2.142 3.8 4.248a6.289 6.289 0 0 1-.087 1.045Zm3.116-1.811a1.537 1.537 0 0 0-1.5-1.724 1.749 1.749 0 0 0-1.637 1.724Z"/><path data-name="Path 685" d="M47.699 3.385v9.82c0 .957.035 1.968.07 2.542h-2.351l-.1-1.236h-.052a2.974 2.974 0 0 1-2.664 1.428c-2.02 0-3.639-1.724-3.639-4.37-.017-2.873 1.776-4.544 3.813-4.544a2.615 2.615 0 0 1 2.246.958h.035V3.385Zm-2.647 7.452a2.38 2.38 0 0 0-.035-.488 1.591 1.591 0 0 0-1.549-1.288c-1.219 0-1.828 1.079-1.828 2.42 0 1.445.714 2.35 1.811 2.35A1.568 1.568 0 0 0 45 12.56a3.434 3.434 0 0 0 .052-.609Z"/><path data-name="Path 687" d="M68.017-.001h-15.7a1.986 1.986 0 0 0-1.983 1.99v15.924a1.986 1.986 0 0 0 1.983 1.99h15.7A1.986 1.986 0 0 0 70 17.913V1.99a1.986 1.986 0 0 0-1.983-1.991M56.642 15.748H54V7.234h2.646ZM55.3 6.19a1.326 1.326 0 1 1 1.428-1.323A1.319 1.319 0 0 1 55.3 6.19m11 9.558h-2.646V11.03c0-1.1-.383-1.845-1.341-1.845a1.453 1.453 0 0 0-1.358.992 1.908 1.908 0 0 0-.087.662v4.91h-2.646v-5.8c0-1.062-.035-1.95-.07-2.716h2.3l.122 1.184h.052a3.057 3.057 0 0 1 2.629-1.376c1.741 0 3.047 1.167 3.047 3.674Z"/></g></g></svg>